<svg viewBox="0 0 367.4112 367.4112" xmlns="http://www.w3.org/2000/svg"><path d="m352.972656 112.179688c-9.265625-21.863282-22.476562-41.523438-39.371094-58.367188-16.847656-16.847656-36.507812-30.105469-58.371093-39.375-22.628907-9.574219-46.691407-14.4375-71.523438-14.4375s-48.847656 4.863281-71.527343 14.4375c-21.863282 9.269531-41.523438 22.476562-58.367188 39.375-16.847656 16.84375-30.105469 36.503906-39.375 58.367188-9.574219 22.628906-14.4375 46.695312-14.4375 71.527343s4.863281 48.84375 14.4375 71.523438c9.269531 21.863281 22.476562 41.523437 39.375 58.371093 16.84375 16.84375 36.503906 30.105469 58.367188 39.371094 22.628906 9.574219 46.695312 14.4375 71.527343 14.4375s48.84375-4.863281 71.523438-14.4375c21.863281-9.265625 41.523437-22.476562 58.371093-39.371094 16.84375-16.847656 30.105469-36.507812 39.371094-58.371093 9.574219-22.628907 14.4375-46.691407 14.4375-71.523438s-4.863281-48.847656-14.4375-71.527343zm-169.214844 237.773437c-91.699218 0-166.296874-74.597656-166.296874-166.296875s74.597656-166.300781 166.296874-166.300781c91.699219 0 166.296876 74.601562 166.296876 166.300781-.050782 91.75-74.648438 166.296875-166.296876 166.296875zm0 0"></path><path d="m165.53125 183.707031c0 10.035157 8.140625 18.175781 18.175781 18.175781 10.035157 0 18.175781-8.140624 18.175781-18.175781 0-5.070312-2.101562-9.628906-5.429687-12.953125l-4.144531-72.65625c-.257813-4.761718-4.148438-8.496094-8.960938-8.496094 0 0 0 0-.050781 0-4.8125 0-8.703125 3.789063-8.910156 8.550782l-3.738281 72.90625c-3.171876 3.277344-5.117188 7.730468-5.117188 12.648437zm0 0"></path><path d="m274.226562 65.742188c-12.75-9.78125-26.929687-17.410157-42.136718-22.632813-15.566406-5.375-31.847656-8.089844-48.382813-8.089844h-.050781c-16.488281 0-32.71875 2.714844-48.285156 8.089844-8.855469 3.023437-17.304688 6.914063-25.394532 11.519531-.253906.105469-.460937.207032-.664062.359375-.207031.101563-.410156.257813-.613281.359375-5.328125 3.121094-10.496094 6.605469-15.464844 10.394532-12.746094 9.777343-23.808594 21.503906-32.765625 34.816406-1.742188 2.558594-3.378906 5.21875-4.96875 7.882812-.253906.308594-.460938.613282-.664062.972656-.207032.359376-.359376.71875-.511719 1.074219-6.195313 10.90625-10.957031 22.53125-14.183594 34.765625-3.226563 12.136719-4.914063 24.472656-5.070313 36.96875-.101562.511719-.152343 1.074219-.152343 1.636719s.050781 1.125.152343 1.636719c.054688 2.867187.15625 5.734375.359376 8.601562 1.128906 16.027344 4.8125 31.695313 10.957031 46.542969 2.304687 5.632813 4.96875 11.058594 7.9375 16.28125.152343.359375.304687.714844.511719 1.074219.203124.359375.460937.71875.714843 1.074218 4.609375 7.886719 9.984375 15.308594 15.976563 22.222657 10.597656 12.183593 23.039062 22.476562 36.964844 30.667969.257812.152343.460937.359374.769531.460937.765625.460937 1.585937.769531 2.457031.972656.101562 0 .152344.050781.253906.050781h.054688c3.582031.769532 7.371094-.816406 9.316406-4.144531.257812-.410156.410156-.820312.5625-1.230469l12.492188-21.503906c2.40625-4.148437 1.027343-9.472656-3.171876-11.878906-4.148437-2.40625-9.472656-1.023438-11.878906 3.175781l-8.703125 14.949219c-14.492187-9.726562-26.625-22.066406-35.996093-36.09375l14.847656-8.5c4.148437-2.40625 5.632812-7.730469 3.226562-11.878906-2.40625-4.148438-7.730468-5.632813-11.878906-3.226563l-14.847656 8.5c-7.472656-15.257812-12.03125-31.949219-13.207032-49.101562h17.097657c4.8125 0 8.707031-3.890625 8.707031-8.703125s-3.894531-8.703125-8.707031-8.703125h-17.097657c.5625-8.449219 1.945313-16.949219 4.195313-25.34375 2.253906-8.347657 5.273437-16.335938 9.011719-23.914063l14.898437 8.550782c1.382813.769531 2.867188 1.179687 4.300781 1.179687 3.023438 0 5.941407-1.585937 7.578126-4.351563 2.40625-4.148437.972656-9.472656-3.226563-11.878906l-14.847656-8.5c9.574219-14.285156 21.863281-26.519531 36.046875-36.042968l8.652344 14.898437c1.636718 2.765625 4.558593 4.351563 7.527343 4.351563 1.484375 0 2.96875-.359376 4.351563-1.179688 4.148437-2.40625 5.582031-7.730469 3.175781-11.875l-8.65625-14.902344c15.105469-7.472656 31.796875-12.082031 49.257813-13.257812v17.253906c0 4.8125 3.890624 8.703125 8.703124 8.703125s8.703126-3.890625 8.703126-8.703125v-17.253906c17.40625 1.125 34.097656 5.734375 49.203124 13.15625l-8.601562 15.054687c-2.40625 4.144531-.972656 9.472657 3.226562 11.878907 1.382813.765624 2.867188 1.175781 4.300782 1.175781 3.019531 0 5.9375-1.585938 7.578125-4.351563l8.601562-15c14.179688 9.46875 26.519531 21.707032 36.144531 36.042969l-15.257812 8.449219c-4.144531 2.40625-5.628906 7.730468-3.222656 11.878906 1.585937 2.8125 4.554687 4.351562 7.574218 4.351562 1.488282 0 2.972657-.359374 4.300782-1.179687l15.15625-8.652344c3.738281 7.578125 6.808594 15.617188 9.0625 24.0625 2.253906 8.398438 3.636718 16.898438 4.199218 25.347657h-17.40625c-4.816406 0-8.707031 3.890624-8.707031 8.703124s3.890625 8.703126 8.707031 8.703126h17.40625c-1.179687 17.203124-5.734374 33.894531-13.261718 49.203124l-15.101563-8.652343c-4.148437-2.40625-9.472656-.972657-11.878906 3.226562-2.40625 4.144531-.972656 9.46875 3.222656 11.875l15.054688 8.65625c-9.371094 14.027344-21.554688 26.367188-36.097657 36.09375l-8.652343-15.050781c-2.40625-4.148438-7.730469-5.632812-11.878907-3.226562-4.144531 2.40625-5.628906 7.730468-3.222656 11.878906l13.054688 22.78125c1.433594 2.460937 3.839844 3.996094 6.449218 4.300781.410157.054687.871094.105469 1.28125.105469 1.484376 0 2.96875-.359375 4.351563-1.179688 14.335937-8.242187 27.035156-18.738281 37.839844-31.179687 10.546875-12.132813 18.992187-25.804688 25.136719-40.652344 6.144531-14.847656 9.832031-30.515625 10.957031-46.542969 1.125-16.433594-.460938-32.867187-4.710938-48.84375-4.300781-15.972656-11.109375-30.976562-20.324219-44.644531-8.910156-13.363281-19.917968-25.089844-32.71875-34.867187zm0 0"></path><path d="m215.960938 304.589844h-64.765626c-7.375 0-13.363281 6.144531-13.363281 13.71875 0 7.628906 6.089844 14.082031 13.363281 14.082031h64.765626c7.320312 0 13.515624-6.453125 13.515624-14.082031 0-7.574219-6.089843-13.71875-13.515624-13.71875zm0 0"></path></svg>