<!-- icon666.com - MILLIONS vector ICONS FREE --><svg fill="white" version="1.1" id="Layer_1" xmlns="http://www.w3.org/2000/svg" xmlns:xlink="http://www.w3.org/1999/xlink" x="0px" y="0px" viewBox="0 0 511.999 511.999" style="enable-background:new 0 0 511.999 511.999;" xml:space="preserve"><g><g><path d="M452.078,299.86c0.109-2.426,0.165-4.856,0.165-7.279c0-87.615-71.281-158.894-158.894-158.894 c-27.628,0-54.019,6.911-77.553,20.151c-19.292-20.303-47.485-30.218-75.491-26.095c-47.26,6.96-80.046,51.072-73.087,98.334 c0.912,6.193,2.486,12.207,4.667,17.991C30.098,258.505,0.001,298.234,0.001,344.866c0,58.784,47.822,106.607,106.606,106.609 h0.001h328.665c42.308,0,76.727-34.42,76.727-76.727C511.999,338.26,486.819,307.54,452.078,299.86z M98.648,173.107 c10.776-14.499,26.555-23.935,44.428-26.566c20.662-3.043,41.451,3.711,56.388,17.842c-1.682,1.236-3.347,2.505-4.99,3.813 c-24.612,19.593-42.94,46.301-52.462,76.039c-11.175-3.906-23.103-5.981-35.401-5.981c-5.477,0-10.858,0.417-16.114,1.216 c-2.144-5.153-3.653-10.562-4.477-16.163C83.386,205.435,87.872,187.606,98.648,173.107z M435.273,432.474H106.611 c-48.308,0-87.609-39.301-87.609-87.609s39.301-87.609,87.609-87.609c30.648,0,58.554,15.6,74.65,41.73 c2.752,4.468,8.602,5.86,13.073,3.107c4.468-2.752,5.858-8.605,3.106-13.072c-9.633-15.637-22.748-28.166-38.024-36.869 c17.683-58.924,71.714-99.463,133.934-99.463c77.137,0,139.893,62.756,139.893,139.893c0,4.779-0.243,9.595-0.722,14.313 c-0.255,2.511,0.5,5.021,2.097,6.975c1.599,1.955,3.907,3.192,6.419,3.44c29.623,2.931,51.963,27.625,51.963,57.439 C492.998,406.578,467.102,432.474,435.273,432.474z"></path></g></g><g><g><path d="M146.581,105.138l-5.375-36.496c-0.765-5.191-5.586-8.779-10.785-8.015c-5.191,0.764-8.78,5.592-8.015,10.783 l5.375,36.496c0.696,4.722,4.754,8.117,9.388,8.117c0.461,0,0.927-0.033,1.397-0.102 C143.756,115.157,147.345,110.328,146.581,105.138z"></path></g></g><g><g><path d="M55.398,227.818c-0.764-5.191-5.582-8.777-10.785-8.015l-36.496,5.375c-5.191,0.764-8.78,5.592-8.015,10.783 c0.696,4.722,4.754,8.117,9.388,8.117c0.46,0,0.926-0.033,1.397-0.102l36.496-5.375C52.574,237.838,56.162,233.009,55.398,227.818 z"></path></g></g><g><g><path d="M245.079,89.472c-4.21-3.129-10.161-2.254-13.293,1.957l-22.006,29.608c-3.13,4.211-2.254,10.162,1.957,13.293 c1.703,1.266,3.691,1.876,5.661,1.876c2.901,0,5.767-1.327,7.631-3.834l22.006-29.608 C250.167,98.553,249.291,92.602,245.079,89.472z"></path></g></g><g><g><path d="M71.849,141.352l-29.608-22.006c-4.211-3.129-10.162-2.254-13.293,1.957c-3.13,4.211-2.254,10.162,1.957,13.293 l29.608,22.006c1.703,1.266,3.691,1.876,5.661,1.876c2.901,0,5.768-1.325,7.631-3.834 C76.936,150.433,76.06,144.482,71.849,141.352z"></path></g></g></svg>