<!-- icon666.com - MILLIONS vector ICONS FREE --><svg fill="white" viewBox="0 0 32 32" xmlns="http://www.w3.org/2000/svg"><path clip-rule="evenodd" d="m24.7231 13.9407-.0376-.7637c-.087-1.7689-1.5497-3.177-3.3407-3.177-.6941 0-1.3361.2103-1.8694.5706l-.7672.5183-.5757-.7251c-1.145-1.442-2.9101-2.3638-4.8911-2.3638-3.40614 0-6.17519 2.7286-6.24023 6.1189l-.01537.8016-.78578.1593c-1.82591.3701-3.20002 1.9858-3.20002 3.9202 0 2.2091 1.79086 4 4 4h17.5c2.4853 0 4.5-2.0147 4.5-4.5 0-2.1514-1.5107-3.9523-3.53-4.3954zm.9612-.8129c2.4684.5417 4.3157 2.7412 4.3157 5.3722 0 3.0376-2.4624 5.5-5.5 5.5h-17.5c-2.76142 0-5-2.2386-5-5 0-2.4194 1.71844-4.4375 4.00136-4.9003.07547-3.9339 3.28804-7.0997 7.24004-7.0997 2.299 0 4.3477 1.07134 5.6742 2.742.6935-.46846 1.5294-.742 2.4292-.742 2.3268 0 4.2265 1.8291 4.3395 4.1278z" fill="white" fill-rule="evenodd"></path></svg>