<!-- icon666.com - MILLIONS vector ICONS FREE --><svg fill="white" viewBox="0 0 48 48" xmlns="http://www.w3.org/2000/svg"><g id="Line"><path d="m11 36h11.424c.774 1.763 2.531 3 4.576 3h13c3.309 0 6-2.691 6-6 0-2.646-1.723-4.892-4.104-5.688.852-5.361-3.47-10.358-8.896-10.312-.8 0-1.584.103-2.345.309-1.214-4.812-5.599-8.309-10.655-8.309-5.45 0-9.985 3.902-10.85 9.196-10.465 2.429-8.95 17.544 1.85 17.804zm33-3c0 2.206-1.794 4-4 4h-13c-3.498-.015-4.121-5.072-.704-5.905.403-.098.705-.436.757-.848.375-2.991 2.931-5.247 5.947-5.247 2.325 0 4.461 1.368 5.441 3.486.183.396.596.624 1.037.571 2.36-.391 4.543 1.573 4.522 3.943zm-33.835-12.945c.468-.056.834-.431.878-.9 1.195-10.596 16.169-10.879 17.861-.393.069.635.798 1.049 1.379.785.862-.363 1.776-.547 2.717-.547 4.21-.037 7.576 3.841 6.921 8.001-3.601-6.318-13.304-4.746-14.745 2.354-1.9.739-3.176 2.564-3.176 4.645h-11c-8.723-.21-9.484-12.702-.835-13.945z"></path></g></svg>