<!-- icon666.com - MILLIONS vector ICONS FREE --><svg fill="white" xmlns="http://www.w3.org/2000/svg" xmlns:xlink="http://www.w3.org/1999/xlink" version="1.1" id="Layer_1" x="0px" y="0px" viewBox="0 0 512 512" style="enable-background:new 0 0 512 512;" xml:space="preserve"><g id="XMLID_1055_"><g id="XMLID_1005_"><g id="XMLID_1033_"><g id="XMLID_1419_"><g id="XMLID_1423_"><path id="XMLID_1054_" d="M59.15,394.751c-2.559,0-5.119-0.976-7.071-2.929c-3.905-3.905-3.905-10.237,0-14.143l31-31 c3.905-3.905,10.237-3.905,14.143,0s3.905,10.237,0,14.143l-31,31C64.269,393.775,61.709,394.751,59.15,394.751z"></path></g><g id="XMLID_1420_"><path id="XMLID_1053_" d="M421.85,394.751c-2.559,0-5.119-0.976-7.071-2.929c-3.905-3.905-3.905-10.237,0-14.143l31-31 c3.905-3.905,10.237-3.905,14.143,0s3.905,10.237,0,14.143l-31,31C426.969,393.775,424.409,394.751,421.85,394.751z"></path></g></g><g id="XMLID_1415_"><g id="XMLID_1418_"><path id="XMLID_1045_" d="M90.15,464.251c-2.559,0-5.119-0.976-7.071-2.929c-3.905-3.905-3.905-10.237,0-14.143l31-31 c3.905-3.905,10.237-3.905,14.143,0s3.905,10.237,0,14.143l-31,31C95.269,463.275,92.709,464.251,90.15,464.251z"></path></g><g id="XMLID_1416_"><path id="XMLID_1042_" d="M331.95,464.251c-2.559,0-5.119-0.976-7.071-2.929c-3.905-3.905-3.905-10.237,0-14.143l31-31 c3.905-3.905,10.237-3.905,14.143,0s3.905,10.237,0,14.143l-31,31C337.069,463.275,334.51,464.251,331.95,464.251z"></path></g></g><g id="XMLID_1234_"><path id="XMLID_1038_" d="M330.126,60c-0.016,0-0.03,0-0.045,0l-0.284,0c-5.523,0-10-4.477-10-10s4.477-10,10-10l0.373,0 c5.523,0.025,9.98,4.522,9.956,10.044C340.1,55.552,335.627,60,330.126,60z"></path></g><g id="XMLID_1163_"><path id="XMLID_1037_" d="M407.704,137.908c-5.523,0-10-4.477-10-10c0-24.152-13-46.687-33.926-58.809 c-4.779-2.768-6.409-8.887-3.64-13.666c2.768-4.778,8.887-6.409,13.666-3.64c27.079,15.687,43.901,44.852,43.901,76.115 C417.704,133.431,413.227,137.908,407.704,137.908z"></path></g><g id="XMLID_1162_"><path id="XMLID_1034_" d="M345.45,318.28c-2.63,0-5.21-1.07-7.07-2.93c-1.86-1.86-2.93-4.44-2.93-7.07s1.07-5.21,2.93-7.07 c1.86-1.87,4.44-2.93,7.07-2.93s5.21,1.06,7.07,2.93c1.86,1.86,2.93,4.44,2.93,7.07s-1.07,5.21-2.93,7.07 C350.66,317.21,348.08,318.28,345.45,318.28z"></path></g></g><path id="XMLID_1010_" d="M493.015,179.586c-9.908-12.209-23.072-21.455-37.762-26.666c1.628-8.207,2.451-16.585,2.451-25.013 C457.704,57.379,400.324,0,329.796,0c-31.817,0-62.312,11.758-85.868,33.109c-19.29,17.484-32.657,40.204-38.583,65.171 c-18.341-9.755-40.462-10.697-59.962-1.815c-22.121,10.075-36.741,30.803-39.327,54.185c-6.804-1.731-13.806-2.604-20.941-2.604 C38.183,148.046,0,186.229,0,233.162s38.183,85.116,85.116,85.116h102.151l-32.431,61.03c-1.647,3.099-1.548,6.835,0.26,9.844 s5.061,4.849,8.571,4.849h57.978l-36.283,104.726c-1.572,4.537,0.302,9.55,4.464,11.943c1.561,0.897,3.278,1.332,4.98,1.332 c2.837,0,5.631-1.206,7.587-3.481l137.14-159.5c2.548-2.963,3.136-7.139,1.506-10.691s-5.18-5.829-9.088-5.829h-29.557 l42.507-71.25c1.843-3.09,1.885-6.933,0.108-10.062s-5.098-5.062-8.696-5.062H231.617c-3.699,0-7.095,2.042-8.831,5.308 l-24.892,46.843H85.116C49.211,298.278,20,269.067,20,233.162c0-35.905,29.211-65.116,65.116-65.116 c9.308,0,18.318,1.94,26.782,5.767c3.275,1.482,7.098,1.089,10.006-1.028c2.908-2.117,4.455-5.633,4.05-9.207 c-2.333-20.643,8.806-40.299,27.718-48.912c17.476-7.959,37.935-4.732,52.122,8.22c2.787,2.545,6.769,3.304,10.296,1.962 c3.527-1.341,6-4.554,6.392-8.307C228.239,61.504,274.373,20,329.796,20c59.5,0,107.908,48.407,107.908,107.908 c0,9.934-1.351,19.777-4.015,29.258c-0.743,2.644-0.366,5.477,1.042,7.834s3.725,4.032,6.406,4.63 C470.609,176.21,492,202.929,492,233.162c0,35.905-29.211,65.116-65.116,65.116H385.45c-5.523,0-10,4.477-10,10s4.477,10,10,10 h41.434c46.933,0,85.116-38.183,85.116-85.116C512,213.699,505.258,194.672,493.015,179.586z M237.628,266.127h81.074 l-42.507,71.25c-1.843,3.09-1.885,6.933-0.108,10.062s5.098,5.062,8.696,5.062h25.381l-88.728,103.194l23.705-68.42 c1.059-3.057,0.574-6.438-1.303-9.073c-1.876-2.636-4.911-4.201-8.146-4.201h-55.388L237.628,266.127z"></path></g></g></svg>