<!-- icon666.com - MILLIONS vector ICONS FREE --><svg version="1.1" id="Layer_1" xmlns="http://www.w3.org/2000/svg" xmlns:xlink="http://www.w3.org/1999/xlink" x="0px" y="0px" viewBox="0 0 512 512" style="enable-background:new 0 0 512 512;" xml:space="preserve"><g><g><path d="M452.079,186.627c0.109-2.425,0.165-4.857,0.165-7.279c0-87.615-71.281-158.894-158.894-158.894 c-36.324,0-70.515,11.934-98.875,34.511c-24.612,19.593-42.952,46.296-52.477,76.034c-11.172-3.902-23.095-5.976-35.387-5.976 C47.826,125.024,0,172.849,0,231.634c0,58.785,47.826,106.61,106.61,106.61h328.663c42.308,0,76.727-34.42,76.727-76.728 C512.001,225.025,486.819,194.308,452.079,186.627z M435.273,319.24H106.611c-48.308,0-87.609-39.301-87.609-87.609 s39.301-87.609,87.609-87.609c30.647,0,58.554,15.6,74.651,41.73c2.753,4.468,8.605,5.858,13.072,3.107 c4.468-2.752,5.858-8.605,3.107-13.072c-9.633-15.637-22.75-28.165-38.024-36.868c17.682-58.924,71.714-99.464,133.934-99.464 c77.137,0,139.893,62.756,139.893,139.893c0,4.779-0.243,9.595-0.722,14.313c-0.255,2.511,0.5,5.021,2.097,6.975 c1.599,1.955,3.908,3.192,6.419,3.44c29.623,2.931,51.963,27.625,51.963,57.439C493,293.345,467.103,319.24,435.273,319.24z"></path></g></g><g><g><path d="M396.39,398.06l-11.991-6.924l11.991-6.924c4.544-2.623,6.102-8.434,3.477-12.978c-2.622-4.544-8.432-6.101-12.978-3.477 l-11.991,6.922v-13.846c0-5.247-4.254-9.501-9.501-9.501c-5.247,0-9.501,4.254-9.501,9.501v13.847l-11.992-6.924 c-4.544-2.625-10.355-1.068-12.978,3.477c-2.625,4.544-1.066,10.355,3.477,12.978l11.991,6.924l-11.991,6.924 c-4.544,2.623-6.102,8.434-3.477,12.978c1.759,3.049,4.952,4.752,8.237,4.752c1.61,0,3.245-0.411,4.741-1.274l11.992-6.924v13.847 c0,5.247,4.254,9.501,9.501,9.501s9.501-4.254,9.501-9.501v-13.846l11.991,6.922c1.496,0.865,3.129,1.274,4.741,1.274 c3.284,0,6.477-1.704,8.237-4.752C402.492,406.494,400.934,400.684,396.39,398.06z"></path></g></g><g><g><path d="M177.601,398.574l-11.992-6.924l11.992-6.924c4.541-2.622,6.098-8.433,3.475-12.977 c-2.623-4.544-8.435-6.099-12.978-3.477l-11.992,6.924v-13.847c0-5.247-4.254-9.501-9.501-9.501c-5.247,0-9.501,4.254-9.501,9.501 v13.846l-11.992-6.924c-4.544-2.626-10.355-1.068-12.978,3.477c-2.623,4.544-1.066,10.355,3.477,12.978l11.992,6.924 l-11.992,6.924c-4.544,2.623-6.101,8.434-3.477,12.978c1.76,3.047,4.953,4.752,8.237,4.752c1.612,0,3.246-0.411,4.742-1.274 l11.992-6.924v13.846c0,5.247,4.254,9.501,9.501,9.501s9.501-4.254,9.501-9.501v-13.846l11.992,6.924 c1.496,0.865,3.129,1.274,4.742,1.274c3.284,0,6.477-1.704,8.237-4.752C183.702,407.008,182.145,401.197,177.601,398.574z"></path></g></g><g><g><path d="M286.995,458.666l-11.991-6.924l11.991-6.924c4.544-2.623,6.101-8.434,3.477-12.978 c-2.625-4.544-8.432-6.103-12.979-3.477l-11.992,6.924V421.44c0-5.247-4.254-9.501-9.501-9.501c-5.247,0-9.501,4.254-9.501,9.501 v13.847l-11.992-6.924c-4.546-2.625-10.355-1.066-12.978,3.477c-2.623,4.544-1.066,10.355,3.477,12.978l11.991,6.924 l-11.991,6.924c-4.544,2.623-6.101,8.434-3.477,12.978c1.76,3.047,4.953,4.752,8.237,4.752c1.612,0,3.246-0.411,4.742-1.274 l11.992-6.924v13.847c0,5.247,4.254,9.501,9.501,9.501c5.247,0,9.501-4.254,9.501-9.501v-13.847l11.992,6.924 c1.496,0.865,3.129,1.274,4.741,1.274c3.284,0,6.477-1.704,8.238-4.752C293.097,467.099,291.539,461.29,286.995,458.666z"></path></g></g></svg>